<?xml version="1.0"?>
<svg width="640" height="480" xmlns="http://www.w3.org/2000/svg" xmlns:svg="http://www.w3.org/2000/svg">
 <!-- Created with SVG-edit - https://github.com/SVG-Edit/svgedit-->
 <g class="layer">
  <title>Layer 1</title>
  <path d="m151.4,148c4.17,10 4.85,11.46 5.59,13.02c0.79,1.66 1.64,3.4 2.51,5.21c0.9,1.86 1.82,3.76 2.73,5.7c1.84,3.9 2.72,5.85 3.59,7.78c0.86,1.92 1.7,3.84 2.53,5.75c0.82,1.89 1.63,3.78 2.44,5.65c1.6,3.72 2.4,5.56 3.2,7.39c0.79,1.81 1.57,3.6 2.34,5.37c0.76,1.73 1.5,3.43 2.21,5.1c1.36,3.19 2,4.72 2.6,6.2c0.58,1.43 1.13,2.81 1.63,4.14c0.49,1.29 0.95,2.53 1.37,3.74c0.78,2.27 1.1,3.36 1.41,4.4c0.29,1 0.56,1.96 0.81,2.88c0.25,0.88 0.47,1.72 0.72,2.52c0.46,1.49 0.73,2.16 1,2.81c0.26,0.62 0.53,1.22 0.8,1.82c0.26,0.59 0.53,1.17 0.75,1.77c0.47,1.24 0.64,1.91 0.8,2.6c0.17,0.7 0.3,1.42 0.43,2.15c0.13,0.72 0.23,1.44 0.34,2.15c0.2,1.35 0.3,1.99 0.4,2.59c0.1,0.58 0.19,1.13 0.28,1.65c0.09,0.5 0.17,0.98 0.24,1.43c0.13,0.84 0.17,1.23 0.2,1.6c0.03,0.35 0.05,0.69 0.06,1.01c0.01,0.31 0.02,0.6 0.02,0.87c0,0.52 0,0.77 0,1c0,0.23 0,0.45 0,0.66c0,0.21 0,0.42 0,0.62c0,0.4 0,0.6 0,0.8c0,0.2 0,0.4 0,0.6l0,0.2l0,0.2l0,0.2" fill="none" id="svg_1" stroke="#000000"/>
  <path d="m199.4,136c3.5,9.67 3.97,11.01 4.45,12.45c0.51,1.51 1.04,3.08 1.59,4.7c0.56,1.65 1.12,3.33 1.68,5.01c1.12,3.34 1.66,4.98 2.19,6.58c0.53,1.58 1.04,3.13 1.55,4.65c0.5,1.5 0.98,2.98 1.45,4.43c0.92,2.84 1.37,4.23 1.8,5.6c0.43,1.35 0.84,2.67 1.24,3.97c0.4,1.27 0.78,2.52 1.16,3.75c0.72,2.36 1.07,3.49 1.4,4.6c0.33,1.07 0.64,2.11 0.94,3.12c0.29,0.97 0.58,1.9 0.86,2.8c0.52,1.68 0.76,2.46 1,3.2c0.22,0.71 0.44,1.38 0.64,2.02c0.2,0.61 0.38,1.19 0.56,1.75c0.32,1.04 0.47,1.53 0.6,2.01c0.13,0.46 0.27,0.92 0.4,1.37c0.14,0.45 0.28,0.91 0.45,1.37c0.35,0.97 0.57,1.48 0.8,2c0.24,0.54 0.5,1.09 0.77,1.65c0.28,0.57 0.56,1.13 0.86,1.7c0.59,1.12 0.9,1.66 1.2,2.2c0.3,0.53 0.6,1.07 0.9,1.6c0.3,0.54 0.6,1.09 0.9,1.65c0.61,1.16 0.9,1.77 1.2,2.4c0.31,0.64 0.61,1.3 0.92,1.97c0.32,0.68 0.63,1.37 0.96,2.06c0.67,1.4 1.03,2.1 1.4,2.79c0.36,0.69 0.74,1.37 1.12,2.02c0.37,0.64 0.74,1.26 1.12,1.84c0.7,1.08 1.06,1.56 1.4,2c0.32,0.41 0.64,0.79 0.94,1.14c0.29,0.33 0.58,0.63 0.86,0.91c0.52,0.53 0.77,0.77 1,1c0.22,0.22 0.43,0.44 0.63,0.65c0.18,0.19 0.35,0.38 0.49,0.55c0.25,0.31 0.33,0.46 0.4,0.6c0.06,0.13 0.11,0.25 0.15,0.36c0.04,0.11 0.06,0.22 0.1,0.32c0.23,0.53 0.75,1.16 1.12,1.98c0.39,0.86 0.66,1.62 0.85,2.05c0.69,1.59 1,2.2 1.33,2.87c0.35,0.71 0.74,1.45 1.16,2.23c0.44,0.81 0.9,1.66 1.96,3.41c0.55,0.91 1.15,1.83 1.75,2.76c0.61,0.93 1.22,1.85 1.83,2.75c0.6,0.88 1.18,1.73 2.25,3.33c0.48,0.72 0.92,1.4 1.33,2.03c0.38,0.59 0.73,1.13 1.05,1.64l0.3,0.47l0.28,0.43" fill="none" id="svg_2" stroke="#000000"/>
  <path d="m108.4,230c10.17,-2 11.91,-2.42 13.83,-2.91c2.08,-0.53 4.29,-1.11 6.63,-1.73c2.45,-0.65 5,-1.34 7.62,-2.05c5.42,-1.47 8.19,-2.23 10.99,-3c2.85,-0.78 5.76,-1.58 8.74,-2.39c3.05,-0.84 6.19,-1.69 9.42,-2.57c6.77,-1.85 10.34,-2.8 14.03,-3.82c3.86,-1.06 7.88,-2.18 12.09,-3.4c4.42,-1.28 9.07,-2.67 13.94,-4.21c10.56,-3.35 16.23,-5.32 22.16,-7.38c6.13,-2.13 12.38,-4.37 18.74,-6.66c6.4,-2.3 12.8,-4.63 19.14,-6.93c12.33,-4.46 18.24,-6.56 23.96,-8.58c5.57,-1.96 11,-3.84 16.33,-5.66c5.23,-1.78 10.4,-3.52 15.52,-5.21c10.18,-3.35 15.29,-4.98 20.41,-6.6c5.09,-1.61 10.16,-3.19 15.18,-4.73c4.95,-1.51 9.82,-2.98 14.59,-4.37c9.17,-2.67 13.55,-3.86 17.8,-5c4.13,-1.11 8.18,-2.16 12.15,-3.17c3.91,-0.99 7.79,-1.95 11.65,-2.9c7.74,-1.9 11.66,-2.85 15.59,-3.8c3.93,-0.95 7.82,-1.9 11.67,-2.82c3.77,-0.9 7.44,-1.78 11,-2.59c6.65,-1.53 9.71,-2.19 12.6,-2.8c2.75,-0.58 5.39,-1.12 7.94,-1.63c2.48,-0.49 4.93,-0.97 7.36,-1.45c4.91,-0.97 7.44,-1.48 10,-2c2.58,-0.53 5.15,-1.06 7.7,-1.59c2.5,-0.52 4.92,-1.03 7.25,-1.5c4.29,-0.88 6.21,-1.26 7.98,-1.59c1.63,-0.31 3.13,-0.58 4.52,-0.82c1.27,-0.22 2.44,-0.4 3.53,-0.55c1.93,-0.26 2.8,-0.34 3.62,-0.41c0.76,-0.07 1.46,-0.12 2.11,-0.17l0.6,-0.05l0.55,-0.05l0.51,-0.06" fill="none" id="svg_3" stroke="#000000"/>
  <path d="m229.4,204c1.83,-0.17 2.11,-0.93 2.71,-1.65c0.44,-0.53 1.54,-0.77 2.12,-1.52c0.52,-0.67 0.2,-1.65 0.45,-2.61c0.21,-0.8 0.43,-1.39 0.71,-2.39c0.31,-1.07 0.48,-1.8 0.7,-2.47c0.37,-1.11 0.97,-1.73 1.24,-2.67c0.24,-0.83 0.05,-1.74 0.14,-2.38c0.15,-1.01 0.44,-1.81 0.63,-2.63c0.23,-0.99 0.27,-1.92 0.45,-2.85c0.15,-0.8 0.43,-1.68 0.55,-2.32c0.19,-1.03 0.24,-1.76 0.27,-2.85c0.02,-0.69 0.11,-1.9 -0.01,-2.58c-0.18,-1.01 -1.18,-1.08 -2.08,-1.08c-0.9,0 -1.68,0 -2.55,0.36c-0.72,0.3 -1.67,0.9 -2.04,1.51c-0.52,0.83 -0.62,1.51 -0.8,2.23c-0.21,0.82 -0.5,2.23 -0.6,2.74c-0.2,1.06 -0.3,1.61 -0.46,2.71c-0.08,0.54 -0.27,2.12 -0.31,2.61c-0.07,0.91 -0.11,1.74 -0.12,2.78c-0.01,1 0.1,1.85 0.52,2.62c0.5,0.93 0.64,1.51 1.06,2.46c0.31,0.69 1.07,1.67 1.4,1.94c0.71,0.57 1.61,0.99 2.09,1.19c1,0.4 2.08,0.7 3.2,0.97c0.56,0.13 1.11,0.25 2.19,0.47c0.51,0.11 1.87,0.38 2.9,0.71c0.79,0.25 1.62,0.59 2.43,0.67c0.8,0.08 1.92,0.19 2.54,-0.36c0.68,-0.61 0.78,-1.59 0.9,-2.09c0.25,-1.11 0.32,-1.71 0.4,-2.33c0.22,-1.85 0.25,-2.44 0.27,-3.02c0.05,-1.13 0.06,-1.69 0.03,-2.83c-0.02,-0.59 -0.1,-1.84 -0.16,-2.5c-0.13,-1.4 -0.21,-2.12 -0.3,-2.86c-0.09,-0.74 -0.18,-1.48 -0.28,-2.21c-0.19,-1.43 -0.3,-2.12 -0.4,-2.79c-0.2,-1.27 -0.3,-1.87 -0.4,-2.45c-0.19,-1.07 -0.5,-2.47 -0.7,-3.26c-0.18,-0.71 -0.4,-1.35 -0.58,-2.57c-0.13,-0.86 -0.13,-1.63 -0.12,-2.68c0.01,-0.87 0.29,-1.91 1.04,-1.94c0.99,-0.04 1.58,0.61 2.19,1.17c0.96,0.88 1.46,1.43 2.02,2.02c0.31,0.32 0.97,1.05 1.31,1.46c1.19,1.43 1.6,2 2.04,2.61c0.46,0.64 0.92,1.33 1.38,2.07c0.48,0.78 0.97,1.59 1.85,3.41c0.46,0.96 0.89,1.98 1.3,3.01c0.41,1.03 0.79,2.05 1.15,3.05c0.35,0.96 0.66,1.86 1.22,3.44c0.23,0.65 0.44,1.21 0.63,1.69c0.16,0.41 0.3,0.75 0.44,1.03c0.11,0.24 0.26,1.68 1.15,1.57c0.58,-0.07 0.29,-1.39 0.29,-2.38c0,-0.83 0,-1.29 0,-2.92c0,-0.62 0,-1.27 0,-1.95c0,-1.41 0,-2.12 0,-2.83c0,-0.7 0,-2.05 0,-2.69c0,-1.19 0,-1.75 0,-2.8c0,-0.5 0,-1.9 0,-2.78c0,-0.82 0,-1.57 0,-2.79c0,-0.79 -0.05,-2.07 0.46,-2.02c1.11,0.11 1.33,0.98 2.06,1.58c0.54,0.44 1.33,1.26 1.79,1.9c0.47,0.66 0.84,1.37 1.28,1.98c0.75,1.04 1.58,1.35 2.16,2.37c0.4,0.71 0.24,0.91 0.24,-0.01c0,-0.77 0,-1.51 0,-2.48c0,-1.22 0,-1.91 0,-2.63c0,-0.74 0,-1.5 0,-2.25c0,-0.74 0,-2.75 0,-3.33c0,-1.04 0,-1.5 0,-2.35c0,-1.11 -0.06,-2.11 0.04,-2.96c0.11,-0.97 0.97,-1.39 1.78,-1.26c0.97,0.15 1.76,0.49 2.35,0.82c1.03,0.57 1.72,1.17 2.08,1.49c0.73,0.66 1.4,1.38 1.7,1.75c0.83,1.03 1.21,1.71 1.62,2.63c0.24,0.55 0.33,2.26 1.07,2.47c0.41,0.11 0.53,-1.23 1.24,-1.14c0.98,0.12 1.58,0.69 2.16,1.55c0.55,0.82 0.99,2.01 1.78,1.62c0.6,-0.3 0.33,-1.92 0.45,-2.79c0.07,-0.48 0.22,-1.48 0.29,-2c0.14,-1.01 0.31,-2.4 0.37,-3.18c0.05,-0.68 -0.31,-1.57 0.07,-2.6c0.28,-0.75 1.19,-0.1 1.61,0.44c0.41,0.52 1.37,1.55 1.8,1.96c0.47,0.46 0.99,0.93 2.09,1.94c0.56,0.51 1.12,1.02 1.66,1.53c0.99,0.94 1.42,1.37 2.13,2.17c0.59,0.67 1,1.32 1.89,2.14c0.54,0.5 1.49,1.08 1.8,0.48c0.34,-0.65 -0.06,-1.45 -0.11,-1.9c-0.19,-1.77 -0.33,-2.5 -0.46,-3.32c-0.15,-0.89 -0.32,-1.84 -0.51,-2.86c-0.21,-1.08 -0.43,-2.22 -0.69,-3.4c-0.55,-2.52 -0.86,-3.84 -1.2,-5.19c-0.35,-1.4 -0.72,-2.82 -1.13,-4.28c-0.42,-1.49 -0.86,-3.01 -1.35,-4.55c-1.01,-3.17 -1.6,-4.77 -2.2,-6.39c-0.61,-1.64 -1.24,-3.28 -1.91,-4.91c-0.66,-1.64 -1.34,-3.26 -2.04,-4.87c-1.38,-3.16 -2.09,-4.69 -2.8,-6.19c-0.7,-1.48 -1.4,-2.93 -2.12,-4.35c-0.71,-1.4 -1.42,-2.78 -2.16,-4.13c-1.46,-2.65 -2.23,-3.94 -3,-5.2c-0.76,-1.25 -1.53,-2.47 -2.3,-3.67c-0.76,-1.18 -1.51,-2.32 -2.25,-3.45c-1.43,-2.16 -2.13,-3.19 -2.79,-4.19c-0.64,-0.96 -1.25,-1.87 -1.83,-2.74c-0.54,-0.81 -1.05,-1.56 -1.52,-2.24c-0.79,-1.16 -1.12,-1.62 -1.4,-2c-0.24,-0.32 -0.44,-0.58 -0.62,-0.78c-0.15,-0.16 -0.27,-0.28 -0.4,-0.33c-0.2,-0.08 -0.31,-0.05 -0.41,0c-0.1,0.05 -0.2,0.16 -0.28,0.31c-0.1,0.18 -0.18,0.42 -0.24,0.71c-0.15,0.76 -0.17,1.25 -0.19,1.81c-0.03,0.62 -0.02,1.32 0.01,2.08c0.04,0.84 0.11,1.74 0.24,2.72c0.28,2.17 0.53,3.35 0.8,4.6c0.29,1.34 0.62,2.75 1,4.24c0.4,1.58 0.84,3.25 1.32,5.01c1.03,3.81 1.6,5.86 2.2,8.01c0.63,2.27 1.3,4.66 2,7.17c0.74,2.64 1.53,5.42 2.36,8.34c1.8,6.29 2.77,9.66 3.79,13.17c1.05,3.61 2.12,7.28 3.22,10.99c1.1,3.73 2.2,7.43 3.31,11.09c2.14,7.04 3.18,10.37 4.19,13.57c0.98,3.08 1.94,6.06 2.89,8.92c0.92,2.78 1.84,5.49 2.76,8.12c1.78,5.1 2.7,7.58 3.6,10.02c0.89,2.41 1.79,4.79 2.68,7.14c0.88,2.33 1.77,4.63 2.64,6.91c1.72,4.52 2.57,6.77 3.39,9c0.82,2.21 1.62,4.41 2.39,6.59c0.76,2.15 1.49,4.27 2.16,6.36c1.31,4.07 1.87,6.05 2.4,7.99c0.52,1.88 0.98,3.69 1.42,5.44c0.42,1.67 0.79,3.27 1.15,4.77c0.64,2.71 0.93,3.91 1.2,5c0.25,1 0.49,1.91 0.71,2.73c0.2,0.75 0.39,1.44 0.57,2.06c0.32,1.09 0.47,1.57 0.6,2.01c0.12,0.39 0.23,0.74 0.33,1.04c0.08,0.25 0.14,0.45 0.19,0.59c0.04,0.12 0.03,0.09 0,0c-0.05,-0.14 -0.12,-0.33 -0.21,-0.57c-0.11,-0.29 -0.24,-0.61 -0.39,-0.98c-0.35,-0.84 -0.57,-1.3 -0.8,-1.81c-0.25,-0.55 -0.52,-1.15 -0.81,-1.82c-0.31,-0.73 -0.65,-1.55 -0.99,-2.45c-0.78,-2.08 -1.17,-3.29 -1.6,-4.6c-0.46,-1.4 -0.93,-2.88 -1.43,-4.43c-0.52,-1.62 -1.07,-3.3 -1.65,-5.01c-1.22,-3.56 -1.9,-5.36 -2.61,-7.22c-0.73,-1.93 -1.53,-3.94 -2.36,-6.08c-0.89,-2.27 -1.85,-4.71 -2.86,-7.34c-2.26,-5.91 -3.49,-9.23 -4.79,-12.77c-1.36,-3.69 -2.75,-7.49 -4.17,-11.35c-1.42,-3.87 -2.84,-7.71 -4.26,-11.45c-2.67,-7.02 -3.96,-10.2 -5.19,-13.16c-1.15,-2.76 -2.28,-5.34 -3.39,-7.73c-1.05,-2.26 -2.08,-4.39 -3.12,-6.38c-1.97,-3.77 -3,-5.52 -4,-7.23c-0.98,-1.66 -1.96,-3.25 -2.92,-4.79c-0.93,-1.49 -1.85,-2.92 -2.74,-4.29c-1.67,-2.6 -2.46,-3.82 -3.19,-5c-0.7,-1.12 -1.36,-2.18 -1.98,-3.19c-0.58,-0.94 -1.12,-1.83 -1.62,-2.65c-0.88,-1.44 -1.26,-2.05 -1.6,-2.6c-0.31,-0.49 -0.58,-0.93 -0.82,-1.31c-0.21,-0.34 -0.4,-0.64 -0.55,-0.91c-0.25,-0.44 -0.34,-0.63 -0.4,-0.81c-0.06,-0.15 -0.1,-0.27 -0.11,-0.37c-0.01,-0.07 -0.01,-0.14 0.03,-0.15c0.09,-0.01 0.14,0.11 0.2,0.21c0.09,0.14 0.19,0.32 0.31,0.54c0.15,0.28 0.33,0.61 0.54,0.99c0.52,0.97 0.84,1.55 1.2,2.2c0.4,0.71 0.84,1.48 1.32,2.31c0.52,0.88 1.07,1.8 1.68,2.76c1.3,2.05 2.03,3.1 2.8,4.19c0.79,1.12 1.61,2.26 2.46,3.43c0.87,1.19 1.77,2.39 2.69,3.61c1.87,2.48 2.83,3.73 3.8,4.99c0.97,1.26 1.96,2.51 2.97,3.74c1.01,1.22 2.03,2.42 3.11,3.56c2.12,2.23 3.26,3.24 4.41,4.2c1.16,0.96 2.37,1.87 3.65,2.72c1.3,0.87 2.68,1.71 4.14,2.5c3.1,1.67 4.81,2.42 6.58,3.19c1.8,0.79 3.65,1.53 5.51,2.21c1.83,0.67 3.64,1.28 5.41,1.76c3.27,0.87 4.79,1.08 6.18,1.19c1.29,0.1 2.51,0.06 3.63,-0.13c1.06,-0.18 2.07,-0.49 2.96,-0.99c1.77,-0.98 2.5,-1.79 3.21,-2.59c0.74,-0.84 1.4,-1.79 2.02,-2.82c0.64,-1.07 1.22,-2.22 1.75,-3.45c1.1,-2.57 1.55,-3.96 2,-5.39c0.46,-1.46 0.86,-2.96 1.21,-4.5c0.35,-1.56 0.66,-3.15 0.85,-4.77c0.4,-3.27 0.42,-4.93 0.39,-6.59c-0.02,-1.66 -0.14,-3.31 -0.35,-4.94c-0.21,-1.62 -0.5,-3.22 -0.93,-4.76c-0.85,-3.02 -1.5,-4.44 -2.22,-5.79c-0.73,-1.35 -1.62,-2.64 -2.72,-3.81c-1.14,-1.21 -2.5,-2.36 -4.11,-3.31c-3.62,-2.14 -5.94,-2.85 -8.39,-3.59c-2.6,-0.79 -5.39,-1.42 -8.31,-1.91c-3.02,-0.51 -6.13,-0.88 -9.3,-1.01c-6.4,-0.26 -9.6,0.03 -12.78,0.41c-3.19,0.39 -6.38,0.99 -9.57,1.81c-3.24,0.83 -6.52,1.87 -9.79,3.16c-6.85,2.7 -10.28,4.52 -13.79,6.39c-3.6,1.91 -7.18,4 -10.75,6.23c-3.6,2.25 -7.16,4.6 -10.62,7.08c-6.85,4.92 -10.05,7.56 -13.18,10.17c-3.08,2.58 -6.04,5.2 -8.89,7.85c-2.8,2.6 -5.5,5.22 -8.08,7.85c-5.01,5.11 -7.34,7.67 -9.6,10.19c-2.2,2.45 -4.31,4.87 -6.3,7.26c-1.93,2.31 -3.76,4.57 -5.45,6.81c-3.17,4.2 -4.53,6.23 -5.8,8.2c-1.2,1.86 -2.28,3.67 -3.21,5.43c-0.89,1.67 -1.67,3.28 -2.27,4.85c-1.1,2.89 -1.4,4.28 -1.6,5.6c-0.19,1.23 -0.26,2.41 -0.15,3.49c0.1,1.02 0.31,1.98 0.75,2.77c0.84,1.5 1.62,2 2.41,2.4c0.85,0.42 1.89,0.67 3.04,0.79c1.3,0.14 2.77,0.12 4.4,-0.02c3.82,-0.33 6.02,-0.75 8.42,-1.21c2.63,-0.51 5.48,-1.16 8.56,-1.97c3.33,-0.89 6.91,-1.94 10.72,-3.23c8.49,-2.89 13.1,-4.78 17.97,-6.8c5.12,-2.13 10.42,-4.47 15.85,-7.01c5.6,-2.61 11.3,-5.38 17.03,-8.35c11.66,-6.07 17.41,-9.4 23.14,-12.76c5.72,-3.36 11.35,-6.8 16.88,-10.28c5.46,-3.44 10.79,-6.89 15.98,-10.32c9.97,-6.61 14.66,-9.85 19.19,-12.98c4.37,-3.03 8.58,-5.99 12.61,-8.9c3.9,-2.82 7.64,-5.57 11.21,-8.32c6.81,-5.23 9.96,-7.85 12.99,-10.38c2.9,-2.43 5.62,-4.77 8.15,-7.01c2.36,-2.08 4.51,-4.02 6.44,-5.79c3.19,-2.93 4.41,-4.07 5.41,-5c0.79,-0.73 1.4,-1.3 1.83,-1.71c0.29,-0.27 0.47,-0.56 0.53,-0.49c0.09,0.09 -0.21,0.22 -0.39,0.4c-0.25,0.25 -0.58,0.59 -1.01,1.03c-0.55,0.56 -1.23,1.26 -2.05,2.11c-2.14,2.22 -3.48,3.62 -5.02,5.21c-1.72,1.77 -3.61,3.71 -5.71,5.79c-2.26,2.24 -4.69,4.62 -7.33,7.09c-5.72,5.35 -8.88,8.11 -12.16,10.97c-3.38,2.94 -6.86,5.9 -10.39,8.9c-3.56,3.02 -7.13,6.03 -10.66,9.04c-6.9,5.88 -10.19,8.76 -13.37,11.58c-3.1,2.74 -6.1,5.44 -9.01,8.07c-2.84,2.57 -5.6,5.08 -8.29,7.53c-5.2,4.72 -7.73,6.99 -10.19,9.19c-2.37,2.12 -4.65,4.14 -6.81,6.06c-2.03,1.8 -3.92,3.47 -5.64,5.02c-2.91,2.62 -4.05,3.69 -5,4.61c-0.79,0.77 -1.43,1.41 -1.92,1.96c-0.39,0.44 -0.68,0.8 -0.88,1.1c-0.29,0.45 -0.37,0.65 -0.42,0.82c-0.04,0.14 -0.03,0.27 0.05,0.33c0.1,0.07 0.3,0.07 0.54,0.02c0.74,-0.15 1.23,-0.37 1.82,-0.61c0.71,-0.29 1.54,-0.67 2.49,-1.13c1.1,-0.54 2.35,-1.18 3.75,-1.94c3.35,-1.82 5.28,-2.96 7.4,-4.2c2.29,-1.34 4.74,-2.79 7.33,-4.34c2.73,-1.63 5.58,-3.33 8.55,-5.1c6.22,-3.71 9.46,-5.63 12.77,-7.57c3.35,-1.96 6.75,-3.92 10.19,-5.83c3.43,-1.91 6.87,-3.78 10.32,-5.51c6.74,-3.38 10.09,-4.83 13.36,-6.18c3.16,-1.31 6.23,-2.48 9.19,-3.51c2.81,-0.99 5.47,-1.85 7.98,-2.57c4.4,-1.26 6.3,-1.68 8,-2.01c1.49,-0.29 2.82,-0.47 3.98,-0.51c1.02,-0.03 1.93,0.01 2.68,0.26c1.31,0.42 1.81,0.91 2.22,1.39c0.42,0.49 0.73,1.09 0.95,1.75c0.23,0.69 0.37,1.46 0.41,2.29c0.09,1.8 -0.05,2.77 -0.2,3.79c-0.16,1.06 -0.4,2.15 -0.73,3.26c-0.34,1.14 -0.76,2.3 -1.32,3.44c-1.15,2.36 -1.96,3.47 -2.8,4.59c-0.86,1.15 -1.82,2.26 -2.84,3.36c-1.05,1.13 -2.16,2.23 -3.34,3.32c-2.41,2.23 -3.69,3.31 -4.99,4.39c-1.31,1.09 -2.63,2.16 -3.99,3.2c-1.35,1.03 -2.7,2.04 -4.08,2.98c-2.69,1.83 -4.05,2.63 -5.38,3.39c-1.28,0.74 -2.53,1.41 -3.73,2.02c-1.12,0.58 -2.18,1.1 -3.15,1.57c-1.63,0.8 -2.27,1.12 -2.8,1.4c-0.43,0.23 -0.77,0.42 -1.02,0.56c-0.18,0.1 -0.3,0.25 -0.34,0.2c-0.03,-0.03 0.09,-0.1 0.19,-0.19c0.13,-0.12 0.29,-0.26 0.48,-0.41c0.23,-0.17 0.49,-0.36 0.8,-0.54c0.71,-0.42 1.14,-0.6 1.59,-0.8c0.48,-0.21 0.98,-0.42 1.48,-0.64c0.52,-0.23 1.03,-0.46 1.53,-0.73c0.97,-0.53 1.39,-0.86 1.79,-1.2c0.39,-0.33 0.75,-0.67 1.09,-1.01l0.33,-0.33l0.32,-0.32l0.31,-0.31" fill="none" id="svg_5" stroke="#000000"/>
 </g>
</svg>